<?xml version="1.0" encoding="UTF-8" standalone="no"?>
<!-- Created with Inkscape (http://www.inkscape.org/) -->

<svg
   version="1.1"
   id="svg67"
   width="1024"
   height="1024"
   viewBox="0 0 1024 1024"
   sodipodi:docname="ChatGPT Image May 1, 2025, 01_07_13 PM.png"
   xml:space="preserve"
   inkscape:version="0.0.2 (b0a8486541, 2022-12-01)"
   inkscape:export-filename="ChatGPT Image May 1, 2025, 01_07_13 PM.svg"
   inkscape:export-xdpi="96"
   inkscape:export-ydpi="96"
   xmlns:inkscape="http://www.inkscape.org/namespaces/inkscape"
   xmlns:sodipodi="http://sodipodi.sourceforge.net/DTD/sodipodi-0.dtd"
   xmlns="http://www.w3.org/2000/svg"
   xmlns:svg="http://www.w3.org/2000/svg"><defs
     id="defs71"><inkscape:path-effect
       effect="spiro"
       id="path-effect2052"
       is_visible="true"
       lpeversion="1" /></defs><sodipodi:namedview
     id="namedview69"
     pagecolor="#ffffff"
     bordercolor="#000000"
     borderopacity="0.25"
     inkscape:showpageshadow="2"
     inkscape:pageopacity="0.0"
     inkscape:pagecheckerboard="0"
     inkscape:deskcolor="#d1d1d1"
     showgrid="false"
     inkscape:zoom="0.5814296"
     inkscape:cx="68.795947"
     inkscape:cy="434.27442"
     inkscape:window-width="1854"
     inkscape:window-height="1011"
     inkscape:window-x="66"
     inkscape:window-y="32"
     inkscape:window-maximized="1"
     inkscape:current-layer="g235" /><g
     inkscape:groupmode="layer"
     inkscape:label="Image"
     id="g73"><g
       id="g235"
       transform="translate(13.542724,13.416669)"><path
         style="fill:#023025;fill-opacity:1;stroke-width:3.91738"
         d="M 520.64058,985.0295 C 498.1143,966.69362 475.43211,948.54928 452.59729,930.5991 390.67025,881.919 327.47358,834.5412 270.56488,780.07919 213.65618,725.61719 162.80354,663.43062 130.43786,591.61716 93.126176,508.82944 81.842014,414.07498 101.45462,325.41092 122.11983,231.98829 177.27629,146.53142 254.1515,89.566152 323.3352,38.300373 408.65267,10.474337 494.62563,5.6562818 c 43.87406,-2.4587684 88.12616,0.8942593 130.95424,10.7295872 90.76651,20.844229 174.9188,71.914377 232.45695,145.142801 51.76549,65.88161 81.22233,148.56764 85.04056,232.26635 3.81823,83.69871 -17.69395,168.07986 -59.14084,240.89612 -34.36331,60.37143 -81.65012,112.37201 -131.4374,160.81552 C 680.86727,865.20517 603.19579,928.6944 520.64058,985.0295 Z"
         id="path2050"
         inkscape:path-effect="#path-effect2052"
         inkscape:original-d="m 520.64058,985.0295 c 0,0 -42.38039,-17.6658 -68.04329,-54.4304 C 429.79535,897.93314 215.86607,704.659 130.43786,591.61716 44.192075,477.49349 108.61182,410.45061 101.45462,325.41092 94.297418,240.37119 203.98314,166.45037 254.1515,89.566152 304.31986,12.681982 414.47168,33.630004 494.62563,5.6562818 c 80.154,-27.9737598 87.30694,7.1568102 130.95424,10.7295872 43.64732,3.572739 166.0914,106.985681 232.45695,145.142801 66.36561,38.1571 76.33885,354.1057 25.89972,473.16247 -41.08169,96.96936 -68.66916,62.06073 -131.4374,160.81552 C 689.73093,894.26144 520.64058,985.0295 520.64058,985.0295 Z"
         sodipodi:nodetypes="csssssssssc" /><path
         style="fill:#ff9955;fill-opacity:1"
         d="M 0,512 C -9.0284827,161.72222 -4.5142413,336.86111 0,512 Z"
         id="path241"
         sodipodi:nodetypes="cc" /><path
         style="fill:#ffd500;fill-opacity:1;stroke-width:3.91738"
         d="M 490.11279,807.06559 C 461.1844,781.80323 437.70199,747.00971 424.37773,709.66707 L 413.66518,679.64401 H 347.04552 280.42585 V 419.47678 159.30956 l 11.21097,6.69776 c 57.7855,34.52283 98.36963,89.4378 117.8779,159.50229 11.02141,39.58359 16.57698,105.66394 11.83185,140.73203 -2.42413,17.91516 -4.217,21.42484 -10.94443,21.42484 -4.42495,0 -12.5483,4.15782 -18.05187,9.23959 -21.89213,20.21421 -5.98222,56.67318 24.38411,55.87835 19.3307,-0.50594 28.61618,-8.51678 44.93638,-38.76808 27.7237,-51.38892 36.0074,-120.48069 32.15914,-268.23048 -2.2715,-87.21203 -1.98732,-92.201 6.41157,-112.55844 12.98398,-31.47088 17.74468,-33.369198 29.3915,-11.71979 9.52765,17.71012 9.69823,20.04164 12.05677,164.77066 2.18613,134.15097 3.14273,149.33758 11.09682,176.16942 12.87814,43.44241 35.64922,81.36452 52.83916,87.99647 12.32304,4.75427 15.3932,4.6009 28.76913,-1.43682 29.50176,-13.31676 26.42054,-47.42111 -5.39326,-59.69498 -13.0046,-5.01722 -13.75406,-6.40164 -16.64219,-30.74077 -3.83422,-32.31316 3.65146,-103.29144 14.78548,-140.19403 17.21818,-57.06777 61.80987,-117.67033 108.32656,-147.22172 l 17.85353,-11.34211 v 259.91513 259.91513 h -67.18816 -67.18816 l -2.48215,10.35172 c -10.28397,42.88876 -33.10481,82.01476 -65.59412,112.46036 -14.08273,13.19683 -28.52022,23.99426 -32.08335,23.99426 -3.56314,0 -16.46745,-8.72316 -28.67624,-19.38476 z m 75.42777,-87.8968 c 20.77731,-39.41558 20.76187,-39.52478 -5.58489,-39.52478 H 537.259 l 0.0905,40.46586 0.0905,40.46583 8.09734,-9.41065 c 4.45354,-5.17588 13.45484,-19.57418 20.00294,-31.99626 z m -69.04873,-1.88213 v -37.64265 h -22.69667 c -21.66127,0 -22.56703,0.38635 -19.85561,8.46959 6.4097,19.10828 35.53546,66.81572 40.79151,66.81572 0.96843,0 1.76077,-16.93921 1.76077,-37.64266 z m -80.30555,-95.91134 c 1.19702,-10.3943 3.441,-21.86312 4.9867,-25.48621 2.36593,-5.54586 0.45319,-6.58748 -12.09683,-6.58748 -24.92913,0 -53.56436,-19.12962 -62.93802,-42.04543 -2.66785,-6.52212 -6.69373,-9.70116 -11.4703,-9.05751 -6.56698,0.88495 -7.48371,5.99968 -8.51077,47.48307 -0.63307,25.57026 -0.3783,48.35038 0.56586,50.62252 1.09838,2.64301 17.12947,4.10216 44.50192,4.05051 l 42.78503,-0.0806 2.17641,-18.89876 z m 80.30555,10.54835 c 0,-8.31206 -25.89829,-31.32924 -35.25079,-31.32924 -4.47607,0 -14.76721,32.95773 -11.71507,37.51775 0.73888,1.10387 11.60845,2.00704 24.15463,2.00704 20.71224,0 22.81123,-0.75409 22.81123,-8.19555 z m 87.68357,5.65449 c 3.58199,-3.30744 -6.52511,-36.98373 -11.09974,-36.98373 -12.94636,0 -38.45247,25.87846 -34.60837,35.11361 1.86022,4.46908 41.15239,6.07667 45.70811,1.87012 z m 124.3057,-48.44204 c 0,-46.92554 -0.65856,-51.64945 -7.13426,-51.17488 -3.92384,0.2876 -11.72056,8.10108 -17.32606,17.36335 -12.11644,20.02078 -35.94126,33.82618 -58.52937,33.91512 -12.67209,0.0501 -15.24187,1.22167 -13.24051,6.03739 1.36585,3.28652 3.5496,13.02655 4.85275,21.64452 1.3032,8.61799 2.95904,17.5046 3.67965,19.748 0.83282,2.5927 17.04855,4.09447 44.504,4.12156 l 43.1938,0.0425 v -51.69765 z m -177.10126,-7.04933 c 7.44837,-6.03852 16.54013,-12.52811 20.20392,-14.42132 5.88349,-3.04021 4.90204,-6.39771 -8.40345,-28.74885 -8.28567,-13.91864 -17.3172,-32.35018 -20.07005,-40.9589 l -5.00518,-15.65231 -6.8833,19.13531 c -3.7858,10.5244 -13.35361,29.05682 -21.26182,41.18312 -8.46882,12.98598 -12.53281,22.61602 -9.8878,23.43012 5.52681,1.70107 30.17941,20.30858 32.04708,24.18875 2.20826,4.5878 4.9994,3.40594 19.2606,-8.15592 z M 353.36533,481.86551 c 4.68455,-7.3312 13.57974,-16.01009 19.7671,-19.2864 l 11.24971,-5.9569 -2.74854,-49.41143 c -3.13258,-56.31553 -9.83291,-83.09559 -30.45486,-121.72324 -26.29389,-49.2518 -25.90899,-50.54282 -25.90899,86.90796 V 495.195 h 9.78908 c 6.88782,0 12.31351,-3.95058 18.3065,-13.32949 z m 355.01139,-109.95018 -0.10433,-123.27969 -14.20782,20.59291 c -27.96216,40.52875 -42.65749,93.67987 -42.65749,154.28672 0,29.84535 1.19814,37.80136 5.69276,37.80136 6.13625,0 30.99768,24.25782 30.99768,30.24511 0,1.9983 4.58631,3.63326 10.1918,3.63326 h 10.1918 z"
         id="path239"
         sodipodi:nodetypes="sscccccsssssssssssssssssscccccsssssscccsssscssssssssssssccssssssssssssssssssccssssscssssssscssscssccssssscc" /></g></g></svg>
